<svg xmlns="http://www.w3.org/2000/svg" xmlns:xlink="http://www.w3.org/1999/xlink" style="margin:auto;background:#070616;display:block;z-index:1;position:relative" width="1366" height="657" preserveAspectRatio="xMidYMid" viewBox="0 0 1366 657">
<g transform="translate(683,328.5) scale(1,1) translate(-683,-328.5)"><defs>
  <path id="path-s4qi3errggb-1" d="M-35 -35L35 -35L35 35L-35 35Z" fill="none" stroke="inherit" stroke-width="4.333333333333334" transform="scale(0.3)"></path>
  <path id="path-s4qi3errggb-2" d="M0 -37A37 37 0 0 1 0 37A37 37 0 0 1 0 -37" fill="none" stroke="inherit" stroke-width="4.333333333333334" transform="scale(0.3)"></path>
  <path id="path-s4qi3errggb-3" d="M0 -34.641L40 34.641L-40 34.641Z" fill="none" stroke="inherit" stroke-width="4.333333333333334" transform="scale(0.3)"></path>
</defs><path id="path0" d="M 78.40087982867736 133.3745644701706
c 0 53.546603289525116 -13.101828464458272 15.380407327842322 -28.482235792300592 15.380407327842322
S 21.436408244076176 186.92116775969572 21.436408244076176 133.3745644701706
s 13.101828464458272 -15.380407327842322 28.482235792300592 -15.380407327842322
S 78.40087982867736 79.8279611806455 78.40087982867736 133.3745644701706
z" fill="none" stroke="none"></path>
<use xlink:href="#path-s4qi3errggb-1" x="0" y="0" stroke="#ddeeff">
  <animateMotion begin="-6.094704954757926s" dur="10s" keyPoints="0;1" keyTimes="0;1" repeatCount="indefinite" calcMode="linear">
    <mpath xlink:href="#path0"></mpath>
  </animateMotion>
</use><path id="path1" d="M 72.93675956874517 67.2308909540714
c 0 30.245211024186005 -7.400423974002958 8.6874542303513 -16.087878204354258 8.6874542303513
S 40.761003160036665 97.4761019782574 40.761003160036665 67.2308909540714
s 7.400423974002958 -8.6874542303513 16.087878204354258 -8.6874542303513
S 72.93675956874517 36.98567992988539 72.93675956874517 67.2308909540714
z" fill="none" stroke="none"></path>
<use xlink:href="#path-s4qi3errggb-2" x="0" y="0" stroke="#ddeeff">
  <animateMotion begin="-8.586455352966944s" dur="10s" keyPoints="1;0" keyTimes="0;1" repeatCount="indefinite" calcMode="linear">
    <mpath xlink:href="#path1"></mpath>
  </animateMotion>
</use><path id="path2" d="M 140.46010042196397 154.20375224601457
c 0 46.0108117961643 -11.257964588423178 13.21587147336634 -24.47383606178952 13.21587147336634
S 91.51242829838495 200.21456404217886 91.51242829838495 154.20375224601457
s 11.257964588423178 -13.21587147336634 24.47383606178952 -13.21587147336634
S 140.46010042196397 108.19294044985028 140.46010042196397 154.20375224601457
z" fill="none" stroke="none"></path>
<use xlink:href="#path-s4qi3errggb-2" x="0" y="0" stroke="#aabbcc">
  <animateMotion begin="-1.7084508785617203s" dur="10s" keyPoints="1;0" keyTimes="0;1" repeatCount="indefinite" calcMode="linear">
    <mpath xlink:href="#path2"></mpath>
  </animateMotion>
</use><path id="path3" d="M 175.1215473859948 227.47935820634407
c 0 51.539077818148556 -12.61062542358954 14.80377767117033 -27.41440309475987 14.80377767117033
S 120.29274119647505 279.01843602449264 120.29274119647505 227.47935820634407
s 12.61062542358954 -14.80377767117033 27.41440309475987 -14.80377767117033
S 175.1215473859948 175.9402803881955 175.1215473859948 227.47935820634407
z" fill="none" stroke="none"></path>
<use xlink:href="#path-s4qi3errggb-2" x="0" y="0" stroke="#aabbcc">
  <animateMotion begin="-0.33487986649924917s" dur="10s" keyPoints="0;1" keyTimes="0;1" repeatCount="indefinite" calcMode="linear">
    <mpath xlink:href="#path3"></mpath>
  </animateMotion>
</use><path id="path4" d="M 192.22213713394956 361.5814740974019
c 0 29.90171913855475 -7.316378087093183 8.588791667457215 -15.9051697545504 8.588791667457215
S 160.41179762484876 391.48319323595666 160.41179762484876 361.5814740974019
s 7.316378087093183 -8.588791667457215 15.9051697545504 -8.588791667457215
S 192.22213713394956 331.6797549588471 192.22213713394956 361.5814740974019
z" fill="none" stroke="none"></path>
<use xlink:href="#path-s4qi3errggb-3" x="0" y="0" stroke="#ddeeff">
  <animateMotion begin="-0.8417284843207318s" dur="10s" keyPoints="0;1" keyTimes="0;1" repeatCount="indefinite" calcMode="linear">
    <mpath xlink:href="#path4"></mpath>
  </animateMotion>
</use><path id="path5" d="M 264.1131112014048 345.6515236585302
c 0 61.64641588874443 -15.083697504692784 17.706949244639357 -32.79064674933214 17.706949244639357
S 198.5318177027405 407.2979395472746 198.5318177027405 345.6515236585302
s 15.083697504692784 -17.706949244639357 32.79064674933214 -17.706949244639357
S 264.1131112014048 284.0051077697858 264.1131112014048 345.6515236585302
z" fill="none" stroke="none"></path>
<use xlink:href="#path-s4qi3errggb-1" x="0" y="0" stroke="#bbddff">
  <animateMotion begin="-4.987911514059302s" dur="10s" keyPoints="0;1" keyTimes="0;1" repeatCount="indefinite" calcMode="linear">
    <mpath xlink:href="#path5"></mpath>
  </animateMotion>
</use><path id="path6" d="M 289.5872598316154 327.45531093486545
c 0 43.32697762036427 -10.601281758174235 12.444982933508886 -23.04626469168312 12.444982933508886
S 243.4947304482492 370.78228855522974 243.4947304482492 327.45531093486545
s 10.601281758174235 -12.444982933508886 23.04626469168312 -12.444982933508886
S 289.5872598316154 284.12833331450116 289.5872598316154 327.45531093486545
z" fill="none" stroke="none"></path>
<use xlink:href="#path-s4qi3errggb-2" x="0" y="0" stroke="#aabbcc">
  <animateMotion begin="-3.7663173341114264s" dur="10s" keyPoints="0;1" keyTimes="0;1" repeatCount="indefinite" calcMode="linear">
    <mpath xlink:href="#path6"></mpath>
  </animateMotion>
</use><path id="path7" d="M 344.1471688257685 363.3947108363677
c 0 42.201875488414586 -10.325990810995059 12.121815299863766 -22.447806110858824 12.121815299863766
S 299.25155660405085 405.5965863247823 299.25155660405085 363.3947108363677
s 10.325990810995059 -12.121815299863766 22.447806110858824 -12.121815299863766
S 344.1471688257685 321.1928353479531 344.1471688257685 363.3947108363677
z" fill="none" stroke="none"></path>
<use xlink:href="#path-s4qi3errggb-1" x="0" y="0" stroke="#bbddff">
  <animateMotion begin="-2.7384734895536544s" dur="10s" keyPoints="0;1" keyTimes="0;1" repeatCount="indefinite" calcMode="linear">
    <mpath xlink:href="#path7"></mpath>
  </animateMotion>
</use><path id="path8" d="M 337.99437753205206 168.77359278376548
c 0 20.915445676691196 -5.1176090485521 6.007628013517683 -11.125237062069784 6.007628013517683
S 315.74390340791246 189.6890384604567 315.74390340791246 168.77359278376548
s 5.1176090485521 -6.007628013517683 11.125237062069784 -6.007628013517683
S 337.99437753205206 147.85814710707427 337.99437753205206 168.77359278376548
z" fill="none" stroke="none"></path>
<use xlink:href="#path-s4qi3errggb-1" x="0" y="0" stroke="#aabbcc">
  <animateMotion begin="-2.5261424729742354s" dur="10s" keyPoints="1;0" keyTimes="0;1" repeatCount="indefinite" calcMode="linear">
    <mpath xlink:href="#path8"></mpath>
  </animateMotion>
</use><path id="path9" d="M 423.3584674147754 424.12365052257985
c 0 46.40897109112574 -11.355386543573319 13.330236377238245 -24.685622920811564 13.330236377238245
S 373.9872215731523 470.5326216137056 373.9872215731523 424.12365052257985
s 11.355386543573319 -13.330236377238245 24.685622920811564 -13.330236377238245
S 423.3584674147754 377.7146794314541 423.3584674147754 424.12365052257985
z" fill="none" stroke="none"></path>
<use xlink:href="#path-s4qi3errggb-3" x="0" y="0" stroke="#aabbcc">
  <animateMotion begin="-0.6590299442220426s" dur="10s" keyPoints="0;1" keyTimes="0;1" repeatCount="indefinite" calcMode="linear">
    <mpath xlink:href="#path9"></mpath>
  </animateMotion>
</use><path id="path10" d="M 425.1843861830982 604.2168184625268
c 0 20.65651122233061 -5.054252745889404 5.933253223435389 -10.987505969324793 5.933253223435389
S 403.2093742444486 624.8733296848575 403.2093742444486 604.2168184625268
s 5.054252745889404 -5.933253223435389 10.987505969324793 -5.933253223435389
S 425.1843861830982 583.5603072401962 425.1843861830982 604.2168184625268
z" fill="none" stroke="none"></path>
<use xlink:href="#path-s4qi3errggb-3" x="0" y="0" stroke="#ddeeff">
  <animateMotion begin="-0.5461220357811736s" dur="10s" keyPoints="1;0" keyTimes="0;1" repeatCount="indefinite" calcMode="linear">
    <mpath xlink:href="#path10"></mpath>
  </animateMotion>
</use><path id="path11" d="M 493.03809297417683 602.0650597874069
c 0 50.197445316806 -12.282353641346146 14.418415144188957 -26.700768785535104 14.418415144188957
S 439.6365554031066 652.2625051042129 439.6365554031066 602.0650597874069
s 12.282353641346146 -14.418415144188957 26.700768785535104 -14.418415144188957
S 493.03809297417683 551.8676144706009 493.03809297417683 602.0650597874069
z" fill="none" stroke="none"></path>
<use xlink:href="#path-s4qi3errggb-1" x="0" y="0" stroke="#ddeeff">
  <animateMotion begin="-5.340209593063712s" dur="10s" keyPoints="0;1" keyTimes="0;1" repeatCount="indefinite" calcMode="linear">
    <mpath xlink:href="#path11"></mpath>
  </animateMotion>
</use><path id="path12" d="M 530.8190585423368 375.1750815905287
c 0 43.83369637122041 -10.725266133383716 12.590529808754798 -23.315795942138514 12.590529808754798
S 484.18746665805986 419.0087779617491 484.18746665805986 375.1750815905287
s 10.725266133383716 -12.590529808754798 23.315795942138514 -12.590529808754798
S 530.8190585423368 331.3413852193083 530.8190585423368 375.1750815905287
z" fill="none" stroke="none"></path>
<use xlink:href="#path-s4qi3errggb-3" x="0" y="0" stroke="#aabbcc">
  <animateMotion begin="-5.5195079961369835s" dur="10s" keyPoints="1;0" keyTimes="0;1" repeatCount="indefinite" calcMode="linear">
    <mpath xlink:href="#path12"></mpath>
  </animateMotion>
</use><path id="path13" d="M 555.6732668624585 511.5788685322569
c 0 53.06837641946483 -12.98481550689033 15.243044290697346 -28.227859797587676 15.243044290697346
S 499.2175472672831 564.6472449517217 499.2175472672831 511.5788685322569
s 12.98481550689033 -15.243044290697346 28.227859797587676 -15.243044290697346
S 555.6732668624585 458.51049211279206 555.6732668624585 511.5788685322569
z" fill="none" stroke="none"></path>
<use xlink:href="#path-s4qi3errggb-2" x="0" y="0" stroke="#aabbcc">
  <animateMotion begin="-8.25719238171651s" dur="10s" keyPoints="1;0" keyTimes="0;1" repeatCount="indefinite" calcMode="linear">
    <mpath xlink:href="#path13"></mpath>
  </animateMotion>
</use><path id="path14" d="M 608.0537089633372 541.17358782236
c 0 40.65644364280489 -9.94785323175013 11.67791466335885 -21.62576789510898 11.67791466335885
S 564.8021731731192 581.8300314651649 564.8021731731192 541.17358782236
s 9.94785323175013 -11.67791466335885 21.62576789510898 -11.67791466335885
S 608.0537089633372 500.5171441795551 608.0537089633372 541.17358782236
z" fill="none" stroke="none"></path>
<use xlink:href="#path-s4qi3errggb-3" x="0" y="0" stroke="#ddeeff">
  <animateMotion begin="-0.7907962481842623s" dur="10s" keyPoints="0;1" keyTimes="0;1" repeatCount="indefinite" calcMode="linear">
    <mpath xlink:href="#path14"></mpath>
  </animateMotion>
</use><path id="path15" d="M 652.6893409636351 401.8915738893508
c 0 50.721035704486745 -12.410466183012712 14.568808127884491 -26.979274310897203 14.568808127884491
S 598.7307923418408 452.61260959383753 598.7307923418408 401.8915738893508
s 12.410466183012712 -14.568808127884491 26.979274310897203 -14.568808127884491
S 652.6893409636351 351.1705381848641 652.6893409636351 401.8915738893508
z" fill="none" stroke="none"></path>
<use xlink:href="#path-s4qi3errggb-1" x="0" y="0" stroke="#bbddff">
  <animateMotion begin="-8.179672201748803s" dur="10s" keyPoints="0;1" keyTimes="0;1" repeatCount="indefinite" calcMode="linear">
    <mpath xlink:href="#path15"></mpath>
  </animateMotion>
</use><path id="path16" d="M 682.1914520603399 273.04542765752376
c 0 39.72435123989985 -9.719788069337197 11.410185994439319 -21.129974063776515 11.410185994439319
S 639.9315039327868 312.76977889742363 639.9315039327868 273.04542765752376
s 9.719788069337197 -11.410185994439319 21.129974063776515 -11.410185994439319
S 682.1914520603399 233.3210764176239 682.1914520603399 273.04542765752376
z" fill="none" stroke="none"></path>
<use xlink:href="#path-s4qi3errggb-1" x="0" y="0" stroke="#bbddff">
  <animateMotion begin="-2.6573752351460778s" dur="10s" keyPoints="1;0" keyTimes="0;1" repeatCount="indefinite" calcMode="linear">
    <mpath xlink:href="#path16"></mpath>
  </animateMotion>
</use><path id="path17" d="M 686.0961340522142 17.960583755172262
c 0 39.42321308093928 -9.646105328314928 11.323688863674047 -20.969794191988974 11.323688863674047
S 644.1565456682363 57.38379683611154 644.1565456682363 17.960583755172262
s 9.646105328314928 -11.323688863674047 20.969794191988974 -11.323688863674047
S 686.0961340522142 -21.462629325767015 686.0961340522142 17.960583755172262
z" fill="none" stroke="none"></path>
<use xlink:href="#path-s4qi3errggb-2" x="0" y="0" stroke="#aabbcc">
  <animateMotion begin="-5.168705387612564s" dur="10s" keyPoints="0;1" keyTimes="0;1" repeatCount="indefinite" calcMode="linear">
    <mpath xlink:href="#path17"></mpath>
  </animateMotion>
</use><path id="path18" d="M 735.3135090845875 174.07574685894255
c 0 44.179414100953004 -10.809856641722543 12.689831709848203 -23.499688351570747 12.689831709848203
S 688.314132381446 218.25516095989556 688.314132381446 174.07574685894255
s 10.809856641722543 -12.689831709848203 23.499688351570747 -12.689831709848203
S 735.3135090845875 129.89633275798954 735.3135090845875 174.07574685894255
z" fill="none" stroke="none"></path>
<use xlink:href="#path-s4qi3errggb-3" x="0" y="0" stroke="#ddeeff">
  <animateMotion begin="-0.16115479481296102s" dur="10s" keyPoints="1;0" keyTimes="0;1" repeatCount="indefinite" calcMode="linear">
    <mpath xlink:href="#path18"></mpath>
  </animateMotion>
</use><path id="path19" d="M 776.126237411892 208.01952457288706
c 0 48.27376178441326 -11.811665117462816 13.865867746586787 -25.677532864049603 13.865867746586787
S 724.7711716837929 256.2932863573003 724.7711716837929 208.01952457288706
s 11.811665117462816 -13.865867746586787 25.677532864049603 -13.865867746586787
S 776.126237411892 159.7457627884738 776.126237411892 208.01952457288706
z" fill="none" stroke="none"></path>
<use xlink:href="#path-s4qi3errggb-3" x="0" y="0" stroke="#bbddff">
  <animateMotion begin="-8.346774505115812s" dur="10s" keyPoints="1;0" keyTimes="0;1" repeatCount="indefinite" calcMode="linear">
    <mpath xlink:href="#path19"></mpath>
  </animateMotion>
</use><path id="path20" d="M 829.7586022784772 227.8775311310912
c 0 34.95600068732906 -8.553063997963491 10.040553388913665 -18.593617386877156 10.040553388913665
S 792.5713675047227 262.8335318184202 792.5713675047227 227.8775311310912
s 8.553063997963491 -10.040553388913665 18.593617386877156 -10.040553388913665
S 829.7586022784772 192.92153044376212 829.7586022784772 227.8775311310912
z" fill="none" stroke="none"></path>
<use xlink:href="#path-s4qi3errggb-3" x="0" y="0" stroke="#bbddff">
  <animateMotion begin="-3.4768965684512154s" dur="10s" keyPoints="1;0" keyTimes="0;1" repeatCount="indefinite" calcMode="linear">
    <mpath xlink:href="#path20"></mpath>
  </animateMotion>
</use><path id="path21" d="M 864.1016558066282 532.5467648770783
c 0 52.367590821591044 -12.813346690389297 15.041754810457004 -27.8551015008463 15.041754810457004
S 808.3914528049355 584.9143556986694 808.3914528049355 532.5467648770783
s 12.813346690389297 -15.041754810457004 27.8551015008463 -15.041754810457004
S 864.1016558066282 480.1791740554873 864.1016558066282 532.5467648770783
z" fill="none" stroke="none"></path>
<use xlink:href="#path-s4qi3errggb-1" x="0" y="0" stroke="#aabbcc">
  <animateMotion begin="-6.216524638164769s" dur="10s" keyPoints="0;1" keyTimes="0;1" repeatCount="indefinite" calcMode="linear">
    <mpath xlink:href="#path21"></mpath>
  </animateMotion>
</use><path id="path22" d="M 872.7610380518605 166.86840249802265
c 0 23.348031344201857 -5.712816179964284 6.706349428653724 -12.419165608618009 6.706349428653724
S 847.9227068346246 190.2164338422245 847.9227068346246 166.86840249802265
s 5.712816179964284 -6.706349428653724 12.419165608618009 -6.706349428653724
S 872.7610380518605 143.5203711538208 872.7610380518605 166.86840249802265
z" fill="none" stroke="none"></path>
<use xlink:href="#path-s4qi3errggb-3" x="0" y="0" stroke="#bbddff">
  <animateMotion begin="-1.6889385925340372s" dur="10s" keyPoints="0;1" keyTimes="0;1" repeatCount="indefinite" calcMode="linear">
    <mpath xlink:href="#path22"></mpath>
  </animateMotion>
</use><path id="path23" d="M 918.4889451132191 618.2263621404353
c 0 36.14114562786451 -8.843046270647699 10.380967361195125 -19.224013631842823 10.380967361195125
S 880.0409178495335 654.3675077682998 880.0409178495335 618.2263621404353
s 8.843046270647699 -10.380967361195125 19.224013631842823 -10.380967361195125
S 918.4889451132191 582.0852165125708 918.4889451132191 618.2263621404353
z" fill="none" stroke="none"></path>
<use xlink:href="#path-s4qi3errggb-2" x="0" y="0" stroke="#ddeeff">
  <animateMotion begin="-6.8680256651446925s" dur="10s" keyPoints="0;1" keyTimes="0;1" repeatCount="indefinite" calcMode="linear">
    <mpath xlink:href="#path23"></mpath>
  </animateMotion>
</use><path id="path24" d="M 979.7250957135132 353.91675666387806
c 0 29.703094860810168 -7.2677785297727 8.531740013211431 -15.799518542984131 8.531740013211431
S 948.1260586275448 383.6198515246882 948.1260586275448 353.91675666387806
s 7.2677785297727 -8.531740013211431 15.799518542984131 -8.531740013211431
S 979.7250957135132 324.2136618030679 979.7250957135132 353.91675666387806
z" fill="none" stroke="none"></path>
<use xlink:href="#path-s4qi3errggb-2" x="0" y="0" stroke="#aabbcc">
  <animateMotion begin="-2.5721469736243208s" dur="10s" keyPoints="0;1" keyTimes="0;1" repeatCount="indefinite" calcMode="linear">
    <mpath xlink:href="#path24"></mpath>
  </animateMotion>
</use><path id="path25" d="M 1000.5680900770784 186.85069129003793
c 0 32.632988961354506 -7.984667511820782 9.37330533996353 -17.35797285178431 9.37330533996353
S 965.8521443735098 219.48368025139243 965.8521443735098 186.85069129003793
s 7.984667511820782 -9.37330533996353 17.35797285178431 -9.37330533996353
S 1000.5680900770784 154.21770232868343 1000.5680900770784 186.85069129003793
z" fill="none" stroke="none"></path>
<use xlink:href="#path-s4qi3errggb-1" x="0" y="0" stroke="#bbddff">
  <animateMotion begin="-9.231418608852064s" dur="10s" keyPoints="1;0" keyTimes="0;1" repeatCount="indefinite" calcMode="linear">
    <mpath xlink:href="#path25"></mpath>
  </animateMotion>
</use><path id="path26" d="M 1040.045654261205 479.71367507770054
c 0 53.2618794681759 -13.032161997532398 15.298624953624993 -28.330786951157393 15.298624953624993
S 983.3840803588904 532.9755545458764 983.3840803588904 479.71367507770054
s 13.032161997532398 -15.298624953624993 28.330786951157393 -15.298624953624993
S 1040.045654261205 426.45179560952465 1040.045654261205 479.71367507770054
z" fill="none" stroke="none"></path>
<use xlink:href="#path-s4qi3errggb-1" x="0" y="0" stroke="#bbddff">
  <animateMotion begin="-2.6792905806405565s" dur="10s" keyPoints="1;0" keyTimes="0;1" repeatCount="indefinite" calcMode="linear">
    <mpath xlink:href="#path26"></mpath>
  </animateMotion>
</use><path id="path27" d="M 1063.415881027079 218.87607525142835
c 0 23.676365410041516 -5.793153238627179 6.800658149692777 -12.593811388319956 6.800658149692777
S 1038.2282582504392 242.55244066146986 1038.2282582504392 218.87607525142835
s 5.793153238627179 -6.800658149692777 12.593811388319956 -6.800658149692777
S 1063.415881027079 195.19970984138683 1063.415881027079 218.87607525142835
z" fill="none" stroke="none"></path>
<use xlink:href="#path-s4qi3errggb-1" x="0" y="0" stroke="#bbddff">
  <animateMotion begin="-8.46053597268079s" dur="10s" keyPoints="1;0" keyTimes="0;1" repeatCount="indefinite" calcMode="linear">
    <mpath xlink:href="#path27"></mpath>
  </animateMotion>
</use><path id="path28" d="M 1133.4398226573392 569.5319042511424
c 0 22.633400145309803 -5.537959610022611 6.501083020461327 -12.039042630483937 6.501083020461327
S 1109.3617373963714 592.1653043964521 1109.3617373963714 569.5319042511424
s 5.537959610022611 -6.501083020461327 12.039042630483937 -6.501083020461327
S 1133.4398226573392 546.8985041058326 1133.4398226573392 569.5319042511424
z" fill="none" stroke="none"></path>
<use xlink:href="#path-s4qi3errggb-1" x="0" y="0" stroke="#aabbcc">
  <animateMotion begin="-9.974437673424259s" dur="10s" keyPoints="0;1" keyTimes="0;1" repeatCount="indefinite" calcMode="linear">
    <mpath xlink:href="#path28"></mpath>
  </animateMotion>
</use><path id="path29" d="M 1156.6509263866965 622.1732582144077
c 0 57.03928595277944 -13.956421030999222 16.383624688564307 -30.340045719563527 16.383624688564307
S 1095.9708349475695 679.2125441671872 1095.9708349475695 622.1732582144077
s 13.956421030999222 -16.383624688564307 30.340045719563527 -16.383624688564307
S 1156.6509263866965 565.1339722616283 1156.6509263866965 622.1732582144077
z" fill="none" stroke="none"></path>
<use xlink:href="#path-s4qi3errggb-3" x="0" y="0" stroke="#aabbcc">
  <animateMotion begin="-8.420481954096262s" dur="10s" keyPoints="0;1" keyTimes="0;1" repeatCount="indefinite" calcMode="linear">
    <mpath xlink:href="#path29"></mpath>
  </animateMotion>
</use><path id="path30" d="M 1205.4596345545722 126.03385816313921
c 0 48.50845850606175 -11.869090911057661 13.933280634719866 -25.802371545777525 13.933280634719866
S 1153.854891463017 174.54231666920097 1153.854891463017 126.03385816313921
s 11.869090911057661 -13.933280634719866 25.802371545777525 -13.933280634719866
S 1205.4596345545722 77.52539965707746 1205.4596345545722 126.03385816313921
z" fill="none" stroke="none"></path>
<use xlink:href="#path-s4qi3errggb-2" x="0" y="0" stroke="#aabbcc">
  <animateMotion begin="-0.6151831813376107s" dur="10s" keyPoints="1;0" keyTimes="0;1" repeatCount="indefinite" calcMode="linear">
    <mpath xlink:href="#path30"></mpath>
  </animateMotion>
</use><path id="path31" d="M 1239.2293347014731 283.21160773161364
c 0 51.20591775068503 -12.529107534742081 14.70808275817549 -27.23719029291757 14.70808275817549
S 1184.754954115638 334.4175254822987 1184.754954115638 283.21160773161364
s 12.529107534742081 -14.70808275817549 27.23719029291757 -14.70808275817549
S 1239.2293347014731 232.0056899809286 1239.2293347014731 283.21160773161364
z" fill="none" stroke="none"></path>
<use xlink:href="#path-s4qi3errggb-1" x="0" y="0" stroke="#ddeeff">
  <animateMotion begin="-7.691388626370436s" dur="10s" keyPoints="1;0" keyTimes="0;1" repeatCount="indefinite" calcMode="linear">
    <mpath xlink:href="#path31"></mpath>
  </animateMotion>
</use><path id="path32" d="M 1269.2363530657904 532.5569165519645
c 0 38.17004196566593 -9.339478353301239 10.963735458223194 -20.303213811524433 10.963735458223194
S 1228.6299254427413 570.7269585176305 1228.6299254427413 532.5569165519645
s 9.339478353301239 -10.963735458223194 20.303213811524433 -10.963735458223194
S 1269.2363530657904 494.3868745862986 1269.2363530657904 532.5569165519645
z" fill="none" stroke="none"></path>
<use xlink:href="#path-s4qi3errggb-1" x="0" y="0" stroke="#bbddff">
  <animateMotion begin="-8.52502928317566s" dur="10s" keyPoints="0;1" keyTimes="0;1" repeatCount="indefinite" calcMode="linear">
    <mpath xlink:href="#path32"></mpath>
  </animateMotion>
</use><path id="path33" d="M 1296.9190368875857 570.5746667143899
c 0 30.28021836806073 -7.40898960069571 8.697509531251486 -16.106499131947196 8.697509531251486
S 1264.7060386236913 600.8548850824507 1264.7060386236913 570.5746667143899
s 7.40898960069571 -8.697509531251486 16.106499131947196 -8.697509531251486
S 1296.9190368875857 540.2944483463291 1296.9190368875857 570.5746667143899
z" fill="none" stroke="none"></path>
<use xlink:href="#path-s4qi3errggb-3" x="0" y="0" stroke="#aabbcc">
  <animateMotion begin="-8.745303924099197s" dur="10s" keyPoints="0;1" keyTimes="0;1" repeatCount="indefinite" calcMode="linear">
    <mpath xlink:href="#path33"></mpath>
  </animateMotion>
</use><path id="path34" d="M 1326.8134220576885 178.8008721900596
c 0 25.0264861612138 -6.1235019330629505 7.188458790986943 -13.311960724049893 7.188458790986943
S 1300.1895006095888 203.8273583512734 1300.1895006095888 178.8008721900596
s 6.1235019330629505 -7.188458790986943 13.311960724049893 -7.188458790986943
S 1326.8134220576885 153.7743860288458 1326.8134220576885 178.8008721900596
z" fill="none" stroke="none"></path>
<use xlink:href="#path-s4qi3errggb-3" x="0" y="0" stroke="#bbddff">
  <animateMotion begin="-7.796675720894688s" dur="10s" keyPoints="0;1" keyTimes="0;1" repeatCount="indefinite" calcMode="linear">
    <mpath xlink:href="#path34"></mpath>
  </animateMotion>
</use></g>
</svg>